<?xml version="1.0" standalone="no"?>
<!DOCTYPE svg PUBLIC "-//W3C//DTD SVG 20010904//EN"
 "http://www.w3.org/TR/2001/REC-SVG-20010904/DTD/svg10.dtd">
<svg version="1.0" xmlns="http://www.w3.org/2000/svg"
 width="1588.000000pt" height="696.000000pt" viewBox="0 0 1588.000000 696.000000"
 preserveAspectRatio="xMidYMid meet">
<g transform="translate(0.000000,696.000000) scale(0.100000,-0.100000)"
fill="#000000" stroke="none">
<path d="M4175 6049 c-153 -22 -346 -106 -486 -211 -164 -124 -283 -279 -398
-520 -132 -276 -190 -435 -446 -1223 -156 -479 -214 -633 -325 -862 -125 -258
-241 -447 -390 -632 l-80 -99 -72 19 c-217 56 -321 72 -473 73 -129 1 -160 -2
-221 -21 -116 -37 -181 -96 -205 -186 -26 -97 37 -189 176 -258 103 -51 191
-61 295 -35 134 34 310 149 465 302 l74 73 288 -79 c158 -43 360 -99 448 -124
334 -94 807 -204 1003 -233 166 -24 494 -24 619 0 296 57 525 172 742 375 64
61 73 84 32 90 -16 3 -50 -24 -139 -109 -139 -133 -210 -187 -306 -233 -192
-91 -365 -120 -675 -113 -246 5 -368 23 -721 106 -190 45 -1245 327 -1263 338
-4 2 21 37 56 76 260 293 477 690 691 1260 36 97 118 321 181 496 279 783 441
1110 644 1311 180 178 359 271 605 315 284 51 641 -63 684 -218 23 -81 -35
-234 -127 -340 -83 -94 -154 -151 -255 -200 -89 -44 -112 -66 -86 -82 17 -11
47 4 128 64 220 165 352 344 369 500 7 70 -15 126 -73 191 -56 62 -115 96
-234 134 -186 60 -362 78 -525 55z m-2475 -3499 c101 -13 301 -58 315 -72 7
-7 -21 -39 -80 -95 -179 -171 -305 -247 -442 -267 -136 -19 -245 24 -290 114
-29 57 -29 102 1 166 60 130 240 185 496 154z"/>
<path d="M6790 4709 c-313 -29 -545 -132 -682 -304 -122 -152 -122 -335 2
-469 66 -72 189 -143 415 -241 116 -51 242 -108 280 -128 143 -72 229 -161
265 -276 85 -268 -110 -580 -475 -761 -210 -104 -417 -145 -690 -137 -197 5
-311 30 -436 92 -232 117 -346 312 -325 555 22 242 104 421 267 582 55 54 99
100 99 103 0 13 -50 2 -98 -22 -152 -77 -309 -282 -381 -499 -67 -201 -29
-414 103 -576 227 -279 753 -382 1272 -249 253 65 461 186 654 381 117 117
161 180 208 292 23 54 27 78 27 163 0 92 -3 106 -32 168 -74 156 -188 235
-645 447 -186 87 -290 151 -342 212 -131 153 -57 361 171 481 138 72 351 127
493 127 256 0 440 -123 440 -293 0 -97 -46 -155 -142 -177 -59 -14 -78 -25
-78 -48 0 -21 57 -10 139 28 144 67 204 176 167 303 -22 76 -94 155 -175 191
-111 50 -317 72 -501 55z"/>
<path d="M13209 4063 c-61 -73 -422 -357 -564 -443 -83 -50 -87 -56 -68 -92 9
-18 193 94 360 218 64 47 114 80 111 73 -2 -8 -152 -456 -333 -996 l-329 -983
-192 0 c-190 0 -192 0 -198 -22 -3 -13 -6 -26 -6 -30 0 -5 209 -8 464 -8 l464
0 6 23 c3 12 6 25 6 30 0 4 -53 7 -117 7 -201 1 -237 19 -221 112 5 29 164
517 353 1083 190 567 345 1034 345 1038 0 14 -68 7 -81 -10z"/>
<path d="M14328 4070 c-190 -32 -392 -141 -522 -281 -182 -197 -177 -403 15
-590 l78 -76 -72 -27 c-442 -171 -768 -617 -716 -982 62 -439 644 -487 1141
-94 154 123 263 272 319 440 28 85 31 103 27 190 -3 85 -7 102 -38 160 -21 38
-70 102 -121 154 l-86 90 75 53 c170 122 260 220 322 348 97 203 90 383 -20
509 -79 90 -242 133 -402 106z m60 -118 c168 -53 258 -193 250 -391 -3 -77 -7
-96 -41 -165 -25 -50 -62 -103 -105 -148 -83 -88 -178 -162 -195 -152 -6 4
-80 58 -163 120 -224 167 -273 235 -274 379 0 98 25 160 97 236 112 120 281
167 431 121z m-285 -974 c135 -96 245 -206 283 -283 24 -50 30 -75 32 -151 3
-77 0 -102 -23 -170 -65 -196 -203 -350 -399 -445 -108 -53 -205 -73 -320 -66
-111 6 -188 33 -259 91 -188 154 -180 502 19 782 126 178 345 311 517 313 44
1 57 -5 150 -71z"/>
<path d="M9735 4039 c-152 -25 -329 -115 -500 -252 -38 -31 -70 -55 -72 -54
-1 2 18 65 42 141 25 76 45 140 45 142 0 2 -12 4 -28 4 -27 0 -28 -1 -186
-477 -162 -489 -195 -570 -277 -674 -54 -68 -100 -84 -114 -39 -11 33 16 115
86 263 39 81 73 163 76 183 l6 36 -117 -8 c-64 -3 -116 -4 -116 0 0 3 18 24
39 45 59 59 67 144 16 177 -43 28 -59 7 -90 -118 -35 -143 -75 -251 -130 -355
-59 -112 -110 -186 -152 -223 -50 -44 -67 -37 -71 28 -4 62 39 177 111 297
l45 75 -52 0 c-29 0 -60 -6 -68 -12 -9 -7 -42 -58 -74 -113 -115 -202 -195
-295 -253 -295 -41 0 -54 21 -49 78 8 85 83 221 180 327 106 116 199 147 252
84 25 -29 46 -32 46 -5 0 23 -55 65 -99 75 -146 32 -313 -79 -403 -269 -22
-47 -51 -108 -65 -137 -14 -28 -49 -75 -78 -102 -43 -41 -61 -51 -88 -51 -65
0 -74 40 -41 190 17 81 20 87 86 158 38 41 91 107 119 148 l50 74 54 0 c48 0
55 2 55 20 0 17 -7 20 -45 20 l-44 0 50 103 c61 125 78 200 58 242 -27 57 -93
42 -162 -35 -23 -26 -73 -106 -110 -178 l-68 -131 -57 -3 c-43 -2 -57 -7 -57
-18 0 -11 13 -16 48 -18 26 -2 47 -4 47 -6 0 -1 -18 -54 -41 -116 -56 -158
-89 -292 -89 -361 0 -51 4 -63 31 -93 70 -80 173 -53 261 68 15 21 28 33 28
25 0 -34 24 -94 45 -115 28 -27 72 -31 113 -10 34 17 120 108 151 159 12 20
24 37 25 37 1 0 0 -27 -2 -60 -8 -106 19 -150 92 -150 37 0 46 6 111 73 76 79
126 164 194 332 l40 100 43 -4 c52 -4 98 -26 98 -47 0 -9 -27 -66 -59 -127
-69 -129 -86 -190 -71 -247 12 -45 51 -80 88 -80 69 0 160 95 232 240 17 36
42 74 54 85 14 12 39 68 66 145 87 254 149 359 291 495 131 125 290 195 445
195 190 0 291 -82 302 -247 12 -190 -110 -442 -361 -744 -152 -183 -237 -270
-719 -731 l-438 -418 578 0 577 0 125 371 c69 204 127 375 128 380 2 5 -10 9
-26 9 -32 0 -33 -2 -179 -437 l-45 -133 -395 0 -396 0 234 238 c689 699 972
1039 1071 1287 30 74 33 89 33 195 0 102 -3 121 -25 165 -74 150 -245 219
-455 184z m-1829 -314 c10 -25 -14 -104 -63 -207 l-46 -98 -44 0 c-24 0 -43 2
-43 5 0 12 83 190 106 227 31 50 64 88 76 88 5 0 11 -7 14 -15z"/>
<path d="M11455 4010 c-330 -52 -675 -277 -948 -619 -186 -233 -331 -527 -378
-766 -23 -114 -18 -323 9 -425 94 -346 383 -530 756 -481 373 50 788 351 1071
776 135 202 225 414 260 608 24 132 17 349 -15 457 -62 214 -201 365 -393 426
-93 29 -257 40 -362 24z m173 -135 c95 -23 160 -60 238 -140 55 -56 82 -94
118 -166 66 -135 80 -198 80 -359 0 -211 -45 -387 -159 -615 -136 -273 -328
-482 -572 -623 -320 -186 -633 -174 -839 32 -210 211 -259 523 -139 883 159
475 488 835 874 957 149 47 285 58 399 31z"/>
<path d="M11060 3283 c0 -4 6 -31 14 -60 l14 -52 -51 -33 -52 -33 60 -5 c58
-5 60 -6 72 -40 7 -19 12 -45 12 -58 1 -35 17 -18 37 39 l19 51 57 -6 c32 -3
58 -2 58 2 -1 4 -19 21 -40 37 -21 17 -39 35 -40 42 0 6 9 32 20 57 10 25 17
46 14 46 -4 0 -28 -12 -54 -27 l-48 -27 -46 38 c-25 20 -46 34 -46 29z"/>
<path d="M11547 2643 c-4 -3 -7 -24 -7 -45 0 -32 -4 -40 -26 -48 -14 -6 -36
-10 -50 -10 -36 0 -29 -15 17 -35 l41 -19 -4 -53 -5 -54 39 38 38 37 45 -22
c25 -12 45 -20 45 -17 0 2 -10 25 -22 50 l-22 45 34 35 34 35 -54 -3 c-53 -2
-54 -1 -75 36 -12 20 -25 34 -28 30z"/>
<path d="M10765 2265 l7 -50 -39 -19 -38 -20 48 -9 c45 -9 47 -11 53 -48 8
-49 19 -49 36 -3 12 35 14 36 60 32 l47 -3 -29 30 c-34 35 -36 45 -15 85 18
35 12 37 -34 9 l-34 -20 -34 33 -34 33 6 -50z"/>
<path d="M4245 3834 c-64 -33 -104 -85 -185 -239 -29 -55 -58 -103 -65 -107
-32 -19 -115 -29 -187 -22 l-78 7 36 66 c57 104 142 217 179 237 32 17 33 19
18 36 -33 36 -95 16 -155 -50 -38 -42 -97 -139 -144 -236 l-29 -58 -80 6 c-44
3 -93 6 -108 6 l-29 0 42 78 c59 108 126 199 161 217 32 17 35 25 17 43 -33
33 -124 -9 -175 -80 -17 -25 -57 -92 -88 -150 l-56 -106 -47 -7 c-75 -11 -140
-44 -168 -84 -13 -20 -24 -39 -24 -43 0 -16 29 -7 34 10 12 35 55 64 117 79
34 8 63 12 65 10 2 -2 -7 -29 -20 -59 -14 -31 -43 -109 -65 -174 -50 -146
-131 -300 -192 -365 -38 -41 -51 -49 -82 -49 -39 0 -57 19 -57 61 0 12 41 118
91 236 50 118 88 221 85 229 -4 10 -23 14 -70 14 l-64 0 10 -28 c10 -25 3 -50
-56 -200 -71 -183 -81 -244 -51 -301 28 -56 113 -65 176 -20 27 19 86 93 126
155 9 16 11 10 6 -32 -18 -166 129 -221 265 -99 l50 45 12 -34 c14 -45 40 -67
87 -73 84 -11 170 39 237 139 l34 49 4 -60 c7 -95 54 -131 154 -116 54 8 130
65 170 129 16 25 31 45 34 46 3 0 7 -17 8 -37 4 -58 33 -104 82 -130 125 -66
264 17 363 216 48 95 59 134 34 112 -8 -6 -31 -45 -51 -86 -41 -84 -128 -184
-180 -209 -38 -18 -88 -21 -116 -6 -37 20 -50 102 -29 184 10 40 14 44 50 50
157 25 310 164 297 271 -4 39 -46 68 -98 67 -108 -2 -221 -101 -316 -279 -121
-226 -175 -293 -239 -293 -80 0 -99 86 -53 230 17 54 33 78 92 140 86 91 157
195 235 350 91 177 109 255 70 304 -24 30 -42 32 -84 10z m61 -111 c-13 -100
-183 -403 -291 -519 l-45 -49 40 100 c56 138 192 410 235 468 19 26 43 47 51
47 14 0 16 -8 10 -47z m-733 -279 c20 -3 37 -9 37 -13 0 -4 -15 -45 -34 -91
-31 -76 -87 -253 -116 -365 -13 -52 -76 -135 -121 -159 -68 -37 -121 3 -120
91 0 60 56 253 115 400 67 168 56 155 134 148 37 -3 84 -8 105 -11z m371 -106
c-25 -62 -56 -149 -69 -193 -31 -98 -129 -268 -184 -318 -52 -47 -99 -51 -131
-9 -20 24 -22 36 -17 97 5 72 87 339 140 458 l26 57 103 1 c57 1 114 5 128 9
14 4 30 8 36 9 7 1 -8 -48 -32 -111z m647 -22 c9 -20 7 -34 -13 -78 -14 -29
-40 -68 -59 -87 -37 -38 -141 -91 -177 -91 l-23 0 27 50 c55 101 179 230 222
230 7 0 17 -11 23 -24z"/>
<path d="M3019 3521 c-16 -16 -29 -39 -29 -50 0 -29 35 -61 65 -61 35 0 75 42
75 79 0 63 -61 81 -111 32z"/>
<path d="M6689 2179 c-239 -35 -537 -249 -646 -462 -78 -155 -89 -317 -28
-437 81 -159 249 -200 426 -103 230 125 315 493 114 493 -43 0 -115 -24 -115
-38 0 -4 30 -6 68 -4 62 4 69 2 92 -23 21 -23 25 -36 25 -88 -1 -85 -47 -179
-125 -257 -49 -49 -70 -62 -127 -80 -137 -43 -240 -1 -303 124 -32 64 -34 76
-33 155 2 163 65 295 207 436 106 105 213 172 343 218 167 58 335 38 379 -45
23 -43 23 -166 0 -263 -9 -38 -64 -180 -121 -315 -117 -275 -145 -365 -145
-460 0 -266 283 -217 480 82 24 37 45 66 46 65 1 -1 -2 -24 -6 -52 -22 -128
-3 -261 42 -302 31 -28 70 -36 94 -18 21 15 13 21 -36 27 -33 4 -50 40 -50
110 0 130 50 307 140 493 32 66 59 129 60 140 4 37 0 53 -15 59 -33 12 -75
-47 -176 -245 -56 -111 -124 -235 -152 -277 -126 -189 -262 -269 -321 -189
-18 24 -21 42 -20 110 2 103 24 172 145 446 50 112 99 238 110 279 36 142 20
280 -39 345 -27 30 -102 64 -167 76 -65 12 -66 12 -146 0z"/>
<path d="M7795 1738 c-40 -31 -80 -98 -221 -370 -70 -134 -146 -276 -170 -316
-24 -40 -44 -77 -44 -83 0 -22 23 6 67 82 49 85 67 105 32 37 -24 -48 -59
-144 -59 -165 0 -9 14 -13 43 -13 l42 0 13 76 c17 108 42 157 121 234 102 100
193 129 199 64 3 -26 -3 -37 -35 -63 -20 -17 -53 -34 -73 -37 -52 -10 -70 -22
-86 -59 -57 -138 51 -265 179 -211 68 28 166 179 223 344 17 48 21 52 51 52
41 0 83 -19 83 -38 0 -8 -20 -52 -44 -96 -56 -103 -72 -162 -57 -209 29 -86
129 -65 199 41 17 26 32 15 32 -24 0 -32 38 -74 66 -74 14 0 37 6 53 14 28 15
94 83 121 125 15 22 16 21 15 -39 0 -53 3 -64 24 -81 43 -35 79 -25 138 37 43
46 53 52 53 34 0 -74 72 -111 143 -72 38 21 38 21 32 1 -6 -18 -3 -20 31 -17
36 3 40 7 89 92 82 142 227 288 257 258 9 -9 -1 -37 -40 -112 -65 -125 -69
-174 -22 -222 26 -26 36 -30 65 -25 43 7 87 40 121 89 26 37 44 42 44 12 0
-30 30 -72 64 -88 105 -50 214 18 291 181 39 81 39 83 26 83 -6 0 -24 -28 -40
-63 -53 -110 -134 -187 -198 -187 -49 0 -74 33 -72 97 2 73 9 82 80 106 116
39 189 104 205 183 9 47 -23 79 -78 78 -98 -2 -180 -79 -261 -246 -59 -120
-134 -218 -168 -218 -56 0 -37 90 62 284 38 76 68 140 66 143 -3 2 -29 -6 -60
-17 -69 -26 -178 -102 -239 -168 -27 -28 -48 -49 -48 -46 0 13 54 108 94 168
l46 66 -44 0 c-28 0 -48 -6 -58 -17 -14 -17 -58 -93 -152 -266 -62 -112 -127
-162 -164 -125 -22 22 -12 60 58 226 39 90 70 171 70 178 0 10 -15 14 -55 14
-52 0 -55 -1 -45 -20 23 -43 -129 -353 -195 -396 -24 -15 -28 -16 -42 -2 -13
13 -13 24 -4 68 12 54 64 172 101 227 l21 32 -36 7 c-48 9 -58 -2 -141 -142
-97 -165 -182 -234 -214 -174 -34 64 104 298 218 371 57 36 85 37 119 3 17
-18 29 -22 36 -15 13 13 -6 37 -44 57 -72 37 -202 -5 -276 -90 -23 -27 -67
-98 -98 -160 -63 -129 -112 -189 -147 -184 -40 5 -28 69 41 215 32 70 63 141
66 156 l7 28 -96 -7 c-53 -4 -96 -5 -96 -2 0 3 16 22 35 42 42 45 48 101 14
132 -34 31 -51 8 -80 -107 -32 -123 -55 -184 -116 -301 -82 -160 -158 -208
-217 -138 -29 35 -42 101 -29 149 8 30 15 35 54 45 94 24 169 97 169 163 0 48
-34 68 -92 53 -69 -19 -98 -38 -180 -118 -43 -42 -78 -71 -78 -66 0 18 119
243 182 343 34 56 85 129 111 162 l48 59 -39 0 c-25 0 -49 -8 -67 -22z m2003
-403 c6 -65 -97 -168 -184 -182 l-36 -6 23 43 c13 24 54 75 90 113 73 76 102
84 107 32z"/>
<path d="M5590 1428 c-19 -20 -157 -294 -189 -373 -6 -17 -22 -35 -34 -40 -18
-8 -22 -19 -24 -55 -1 -25 -18 -87 -38 -139 -20 -51 -39 -115 -42 -142 -5 -44
-4 -49 18 -59 34 -15 71 0 104 44 32 43 65 142 65 199 0 38 4 44 37 62 25 14
47 39 70 80 18 33 33 65 33 70 -1 6 -6 1 -12 -10 -37 -65 -81 -123 -102 -133
-22 -10 -25 -8 -40 33 l-17 43 52 104 c65 130 119 224 163 281 28 37 32 47 19
51 -26 10 -42 6 -63 -16z m-152 -523 c8 -8 -30 -149 -51 -192 -30 -58 -51 -78
-73 -69 -12 5 -14 14 -9 38 8 40 31 114 57 186 19 50 22 53 47 47 14 -4 27 -8
29 -10z"/>
<path d="M5245 1198 c-72 -39 -135 -138 -135 -212 0 -38 4 -48 26 -63 25 -16
30 -16 70 -1 25 9 47 12 50 7 7 -12 71 -11 79 0 3 6 -8 8 -29 4 -45 -7 -53 9
-23 49 40 54 59 97 60 143 3 69 -43 104 -98 73z m81 -44 c6 -24 -8 -78 -33
-127 -13 -27 -15 -27 -27 -11 -9 11 -19 15 -31 10 -14 -5 -16 -14 -11 -45 6
-41 -3 -51 -45 -51 -64 0 3 191 85 241 34 21 54 15 62 -17z"/>
</g>
</svg>
